<?xml version="1.0" encoding="utf-8"?>
<!-- Generator: Adobe Illustrator 15.1.0, SVG Export Plug-In . SVG Version: 6.00 Build 0)  -->
<!DOCTYPE svg PUBLIC "-//W3C//DTD SVG 1.1//EN" "http://www.w3.org/Graphics/SVG/1.1/DTD/svg11.dtd">
<svg version="1.1" id="レイヤー_1" xmlns="http://www.w3.org/2000/svg" xmlns:xlink="http://www.w3.org/1999/xlink" x="0px"
	 y="0px" width="138px" height="113px" viewBox="0 0 138 113" enable-background="new 0 0 138 113" xml:space="preserve">
<g>
	<g>
		<path fill="#F9AC2B" d="M7.56,23.581v21.158c0,4.209-1.934,7.735-5.916,7.735v7.053c3.981,0,5.916,3.526,5.916,7.734v21.272
			c0,10.465,7.849,16.835,16.153,16.835h6.939v-8.189h-6.939c-3.981,0-7.394-3.641-7.394-8.759V66.124
			c0-4.777-1.365-8.531-5.119-10.124c3.753-1.592,5.119-5.346,5.119-10.124V23.467c0-5.232,3.413-8.646,7.394-8.646h6.939v-8.19
			h-6.939C15.409,6.632,7.56,13.116,7.56,23.581z M43.98,48.484c-4.323,0-7.963,3.64-7.963,7.849c0,4.322,3.64,8.077,7.963,8.077
			s7.963-3.755,7.963-8.077C51.943,52.125,48.303,48.484,43.98,48.484z M69.367,48.484c-4.323,0-7.963,3.64-7.963,7.849
			c0,4.322,3.64,8.077,7.963,8.077c4.322,0,7.963-3.755,7.963-8.077C77.33,52.125,73.689,48.484,69.367,48.484z M94.754,48.484
			c-4.322,0-7.962,3.64-7.962,7.849c0,4.322,3.64,8.077,7.962,8.077c4.323,0,7.963-3.755,7.963-8.077
			C102.717,52.125,99.077,48.484,94.754,48.484z M131.175,44.739V23.581c0-10.465-7.849-16.949-16.152-16.949h-6.939v8.19h6.939
			c3.98,0,7.394,3.413,7.394,8.646v22.409c0,4.778,1.364,8.532,5.118,10.124c-3.754,1.593-5.118,5.347-5.118,10.124V88.42
			c0,5.118-3.413,8.759-7.394,8.759h-6.939v8.189h6.939c8.304,0,16.152-6.37,16.152-16.835V67.261c0-4.208,1.935-7.734,5.915-7.734
			v-7.053C133.109,52.474,131.175,48.948,131.175,44.739z"/>
	</g>
</g>
</svg>
