<?xml version="1.0" encoding="utf-8"?>
<!-- Generator: Adobe Illustrator 15.1.0, SVG Export Plug-In . SVG Version: 6.00 Build 0)  -->
<!DOCTYPE svg PUBLIC "-//W3C//DTD SVG 1.1//EN" "http://www.w3.org/Graphics/SVG/1.1/DTD/svg11.dtd">
<svg version="1.1" id="レイヤー_1" xmlns="http://www.w3.org/2000/svg" xmlns:xlink="http://www.w3.org/1999/xlink" x="0px"
	 y="0px" width="138px" height="113px" viewBox="0 0 138 113" enable-background="new 0 0 138 113" xml:space="preserve">
<path fill="#F9AC2B" d="M26.907,4.735l-1.21,24.045h2.873c0.352-4.637,1.461-8.317,3.327-11.039
	c1.865-2.723,4.108-4.562,6.729-5.521c2.015-0.705,5.418-1.058,10.208-1.058h12.325v78.333c0,5.746-0.555,9.427-1.664,11.039
	c-1.814,2.622-4.89,3.933-9.224,3.933h-3.63v2.797h43.478v-2.797h-3.555c-3.982,0-6.932-1.059-8.846-3.177
	c-1.361-1.562-2.042-5.492-2.042-11.795V11.163h14.442c4.233,0,7.647,0.693,10.244,2.08c2.597,1.387,4.676,3.542,6.238,6.464
	c0.958,1.815,1.714,4.839,2.269,9.074h2.873l-1.134-24.045H26.907z"/>
</svg>
