<?xml version="1.0" encoding="utf-8"?>
<!-- Generator: Adobe Illustrator 15.1.0, SVG Export Plug-In . SVG Version: 6.00 Build 0)  -->
<!DOCTYPE svg PUBLIC "-//W3C//DTD SVG 1.1//EN" "http://www.w3.org/Graphics/SVG/1.1/DTD/svg11.dtd">
<svg version="1.1" id="レイヤー_1" xmlns="http://www.w3.org/2000/svg" xmlns:xlink="http://www.w3.org/1999/xlink" x="0px"
	 y="0px" width="138px" height="113px" viewBox="0 0 138 113" enable-background="new 0 0 138 113" xml:space="preserve">
<g>
	<g>
		<path fill-rule="evenodd" clip-rule="evenodd" fill="#F9AC2B" d="M39.028,35.973H4.382c-1.71,0-3.097,1.386-3.097,3.097v69.924
			c0,1.709,1.386,3.096,3.097,3.096h34.646c1.71,0,3.097-1.387,3.097-3.096V39.07C42.125,37.359,40.738,35.973,39.028,35.973z
			 M17.935,40.11h7.537v2.269h-7.537V40.11z M21.705,108.241c-1.254,0-2.269-1.017-2.269-2.27s1.015-2.269,2.269-2.269
			c1.253,0,2.268,1.016,2.268,2.269S22.958,108.241,21.705,108.241z M38.619,100.099H4.791V46.023h33.828V100.099z M131.396,0.443
			H62.795c-2.938,0-5.319,2.382-5.319,5.319v101.475c0,2.938,2.381,5.319,5.319,5.319h68.601c2.938,0,5.319-2.381,5.319-5.319V5.763
			C136.715,2.825,134.334,0.443,131.396,0.443z M95.325,6.558h3.546v1.965h-3.546V6.558z M97.095,108.69
			c-2.135,0-3.865-1.731-3.865-3.866c0-2.136,1.73-3.866,3.865-3.866c2.136,0,3.866,1.73,3.866,3.866
			C100.961,106.959,99.23,108.69,97.095,108.69z M132.138,97.092H61.627V14.168h70.511V97.092z"/>
	</g>
</g>
</svg>
